<?xml version="1.0" encoding="UTF-8" standalone="no"?>
<svg
   version="1.1"
   id="Layer_1"
   x="0px"
   y="0px"
   width="122.88px"
   height="122.878px"
   viewBox="0 0 122.88 122.878"
   enable-background="new 0 0 122.88 122.878"
   xml:space="preserve"
   sodipodi:docname="setting-icon.svg"
   inkscape:version="1.2.2 (732a01da63, 2022-12-09)"
   inkscape:export-filename="mousecrank-icon.png"
   inkscape:export-xdpi="200"
   inkscape:export-ydpi="200"
   xmlns:inkscape="http://www.inkscape.org/namespaces/inkscape"
   xmlns:sodipodi="http://sodipodi.sourceforge.net/DTD/sodipodi-0.dtd"
   xmlns="http://www.w3.org/2000/svg"
   xmlns:svg="http://www.w3.org/2000/svg"><defs
     id="defs9" /><sodipodi:namedview
     id="namedview7"
     pagecolor="#ffffff"
     bordercolor="#000000"
     borderopacity="0.25"
     inkscape:showpageshadow="2"
     inkscape:pageopacity="0.0"
     inkscape:pagecheckerboard="0"
     inkscape:deskcolor="#d1d1d1"
     showgrid="false"
     inkscape:zoom="3.4058172"
     inkscape:cx="153.85441"
     inkscape:cy="88.378202"
     inkscape:window-width="1920"
     inkscape:window-height="1017"
     inkscape:window-x="-8"
     inkscape:window-y="-8"
     inkscape:window-maximized="1"
     inkscape:current-layer="g2927" /><g
     id="g4"><path
       fill-rule="evenodd"
       clip-rule="evenodd"
       d="M101.589,14.7l8.818,8.819c2.321,2.321,2.321,6.118,0,8.439l-7.101,7.101 c1.959,3.658,3.454,7.601,4.405,11.752h9.199c3.283,0,5.969,2.686,5.969,5.968V69.25c0,3.283-2.686,5.969-5.969,5.969h-10.039 c-1.231,4.063-2.992,7.896-5.204,11.418l6.512,6.51c2.321,2.323,2.321,6.12,0,8.44l-8.818,8.819c-2.321,2.32-6.119,2.32-8.439,0 l-7.102-7.102c-3.657,1.96-7.601,3.456-11.753,4.406v9.199c0,3.282-2.685,5.968-5.968,5.968H53.629 c-3.283,0-5.969-2.686-5.969-5.968v-10.039c-4.063-1.232-7.896-2.993-11.417-5.205l-6.511,6.512c-2.323,2.321-6.12,2.321-8.441,0 l-8.818-8.818c-2.321-2.321-2.321-6.118,0-8.439l7.102-7.102c-1.96-3.657-3.456-7.6-4.405-11.751H5.968 C2.686,72.067,0,69.382,0,66.099V53.628c0-3.283,2.686-5.968,5.968-5.968h10.039c1.232-4.063,2.993-7.896,5.204-11.418l-6.511-6.51 c-2.321-2.322-2.321-6.12,0-8.44l8.819-8.819c2.321-2.321,6.118-2.321,8.439,0l7.101,7.101c3.658-1.96,7.601-3.456,11.753-4.406 V5.969C50.812,2.686,53.498,0,56.78,0h12.471c3.282,0,5.968,2.686,5.968,5.969v10.036c4.064,1.231,7.898,2.992,11.422,5.204 l6.507-6.509C95.471,12.379,99.268,12.379,101.589,14.7L101.589,14.7z M61.44,36.92c13.54,0,24.519,10.98,24.519,24.519 c0,13.538-10.979,24.519-24.519,24.519c-13.539,0-24.519-10.98-24.519-24.519C36.921,47.9,47.901,36.92,61.44,36.92L61.44,36.92z"
       id="path2"
       style="fill:#4a4ab5;fill-opacity:1" /><g
       transform="matrix(0.00932177,0,0,-0.00932177,12.992762,120.14393)"
       fill="#000000"
       stroke="none"
       id="g2927"
       style="fill:#afb36b;fill-opacity:1"><path
         d="m 6272.0508,12783.33 c -45.7059,-33.241 -143.3505,-227.491 -185.9401,-371.881 -46.7448,-153.738 -74.7916,-195.289 -119.4588,-171.397 -28.0469,14.543 -32.2019,36.357 -32.2019,153.738 1.0387,148.545 -32.202,230.608 -92.4507,230.608 -65.4427,0 -124.6527,-91.412 -167.2423,-256.577 -20.7755,-82.063 -22.853,-100.761 -11.4265,-130.885 7.2714,-18.698 12.4652,-43.629 12.4652,-55.055 0,-11.427 16.6204,-43.629 36.3571,-71.675 38.4345,-55.055 43.6284,-79.986 49.861,-229.569 3.1163,-93.49 3.1163,-94.528 -24.9305,-106.994 -34.2795,-15.581 -76.8691,-93.489 -96.6058,-178.668 -8.3102,-36.357 -27.0081,-204.638 -41.5509,-372.919 -14.5428,-168.281 -35.3182,-418.626 -47.7835,-555.743 -11.4265,-137.118 -39.4733,-380.191 -62.3263,-540.162 -71.6753,-504.8434 -102.8384,-744.7997 -109.071,-836.2116 -11.4265,-158.9321 -24.9306,-315.7867 -62.3264,-711.5588 -27.008,-280.4684 -39.4733,-392.6558 -82.0629,-758.3035 -14.5429,-119.4587 -40.5122,-405.121 -58.1713,-633.6508 -44.6672,-581.7123 -61.2875,-713.6363 -125.6914,-992.0272 -78.9466,-344.8723 -125.6914,-474.7188 -290.8561,-805.0483 -178.6688,-358.3763 -190.0953,-398.8884 -190.0953,-685.5894 -1.0387,-216.0646 6.2327,-284.6235 56.0937,-581.7123 54.0161,-318.903 102.8384,-681.4344 129.8465,-963.9803 18.6979,-195.2892 36.357,-288.7786 78.9467,-410.3149 46.7447,-132.9628 165.1647,-372.9192 242.0338,-491.3392 37.3958,-56.0936 65.4427,-102.8384 62.3263,-102.8384 -7.2714,0 -191.134,123.6139 -236.84,159.9709 -46.7447,37.3958 -84.1405,99.7221 -93.4894,153.7382 -4.1551,21.8142 -18.6979,63.3651 -32.202,93.4895 -13.504,30.1244 -30.1243,77.9079 -37.3958,105.9547 -32.2019,128.8078 -209.8319,204.6381 -304.3601,129.8465 -15.5816,-12.4652 -27.0081,-32.2019 -27.0081,-46.7447 0,-56.0937 56.0937,-161.0096 146.4668,-272.1582 49.8611,-61.2876 89.3344,-112.1874 88.2957,-114.265 -2.0776,-1.0387 -46.7448,18.6979 -100.7609,43.6285 -119.4588,57.1324 -194.2504,76.8691 -312.6704,86.218 -87.2568,6.2327 -92.4507,5.1939 -131.924,-21.8142 -47.7835,-33.2407 -87.2568,-87.2568 -109.071,-149.5831 -18.6979,-50.8999 -13.5041,-64.4039 32.2019,-106.9935 52.9774,-49.8611 210.8707,-66.4814 289.8173,-31.1632 49.8611,22.853 128.8078,38.4346 128.8078,24.9305 -1.0388,-8.3101 -35.3183,-34.2794 -145.4281,-108.0322 -147.5056,-98.6834 -204.6381,-196.3279 -161.0097,-278.3909 16.6204,-33.2407 79.9855,-63.3651 132.9629,-63.3651 41.5508,0 104.9159,57.1324 175.5524,157.8933 105.9547,150.622 126.7302,148.5444 480.9514,-50.8998 85.1793,-48.8223 193.2116,-111.1486 238.9175,-139.1954 94.5283,-57.1325 188.0178,-92.4507 245.1502,-92.4507 49.8611,0 68.559,24.9305 77.9079,105.9547 6.2326,57.1325 15.5816,72.714 30.1244,49.861 10.3877,-16.6203 45.706,-11.4264 67.5202,10.3878 16.6203,16.6203 20.7754,34.2794 20.7754,91.4119 0,196.3279 122.5751,404.0823 432.1291,734.4117 69.5977,74.7916 154.777,168.2811 189.0565,207.7544 35.3183,40.5121 114.2649,120.4976 177.63,178.6688 l 113.2262,106.9935 18.6978,-55.0549 c 22.853,-71.6753 61.2876,-147.5056 102.8385,-204.6381 l 34.2794,-46.7447 -23.8917,-119.4588 c -36.357,-185.9402 -121.5363,-437.323 -204.6381,-604.5652 -110.1098,-223.336 -145.428,-279.4297 -262.8093,-408.2374 -106.9935,-118.42 -143.3505,-169.3198 -218.1421,-296.05 -23.8917,-41.5509 -62.3263,-86.2181 -96.6058,-114.2649 -32.2019,-25.9693 -119.4587,-104.916 -193.2115,-176.5912 -106.9935,-101.79968 -155.8158,-140.23424 -229.5686,-180.74635 -51.9386,-28.04684 -119.4588,-73.7528 -151.6607,-100.76087 -74.7916,-64.40386 -117.3813,-88.29562 -186.979,-109.07106 -31.1631,-9.34894 -86.218,-34.27947 -123.6138,-56.09368 -37.3958,-22.85298 -110.1099,-57.13245 -163.0872,-76.86912 -52.9774,-19.73667 -141.273,-64.40383 -197.3667,-97.64453 -56.0937,-34.27947 -120.4975,-70.63649 -143.3505,-82.06298 -86.2181,-43.62842 -275.2746,-105.95474 -369.8028,-122.57509 -54.0162,-9.34895 -132.9628,-25.9693 -175.5525,-36.35701 -43.6284,-11.4265 -104.9159,-22.85299 -138.1566,-27.00807 -101.7997,-12.46527 -87.2569,-33.24071 39.4733,-59.21 179.7075,-37.39579 457.0596,-10.38772 763.4974,75.83035 60.2487,16.62035 150.6219,35.31824 201.5217,41.55087 79.9854,10.38772 116.3425,21.81421 275.2746,93.48948 100.7608,44.66719 248.2665,105.95473 328.2519,136.07912 261.7705,97.64453 511.0758,231.6461 646.1161,347.98856 50.8998,43.62842 119.4588,99.7221 153.7383,126.73017 34.2794,25.9693 86.218,75.83031 114.2649,109.07101 29.0856,34.2795 99.7221,103.8772 158.9321,155.8158 58.1712,51.9386 120.4975,116.3425 137.1179,143.3506 86.218,134.0015 226.4522,530.8124 280.4684,798.8156 22.853,110.1098 31.1631,304.3601 21.8142,521.4635 -3.1163,85.1793 -1.0388,93.4894 22.853,122.575 38.4345,44.6672 74.7916,129.8465 94.5282,217.1034 15.5816,66.4814 15.5816,93.4895 6.2327,197.3666 -7.2714,67.5202 -21.8143,144.3893 -33.2407,176.5913 l -21.8143,57.1324 30.1244,23.8918 c 16.6204,12.4652 96.6058,75.8303 178.6688,140.2342 239.9563,189.0565 253.4603,198.4054 426.9353,303.3214 191.134,115.3037 383.3068,212.9482 475.7575,244.1114 60.2488,20.7754 79.9854,21.8142 296.05,15.5816 252.4216,-7.2714 245.1502,-8.3102 657.5426,68.5589 91.4119,17.6591 189.0565,35.3183 218.1421,40.5121 38.4346,7.2714 92.4507,3.1163 223.336,-15.5816 94.5282,-14.5428 182.8238,-23.8917 197.3666,-20.7754 16.6204,3.1163 35.3183,-4.1551 55.055,-20.7754 23.8917,-19.7367 41.5508,-24.9306 86.218,-24.9306 54.0165,0 61.2875,3.1164 119.4585,54.0162 45.706,40.5121 66.4822,68.5589 82.0632,108.0323 10.388,30.1243 35.319,78.9466 55.055,110.1098 19.737,30.1244 45.706,88.2956 59.21,127.7689 12.466,40.5121 36.357,98.6834 51.939,129.8465 15.582,31.1632 43.628,105.9547 61.288,166.2035 18.697,60.2488 38.434,124.6527 44.667,143.3505 6.232,21.8143 19.736,38.4346 36.357,44.6672 22.853,8.3102 36.357,3.1164 95.567,-36.357 67.52,-46.7447 87.257,-52.9773 155.816,-49.861 44.667,2.0775 100.76,59.21 111.148,113.2261 7.272,38.4346 -9.349,163.0872 -29.085,213.987 -6.233,16.6204 -22.853,34.2795 -36.357,39.4734 -38.435,14.5428 -176.592,-7.2714 -233.724,-37.3958 -27.008,-14.5428 -63.365,-25.9693 -81.024,-25.9693 -27.008,0 -31.164,4.1551 -31.164,25.9693 0,49.861 29.086,87.2568 91.412,118.42 74.792,38.4345 142.312,87.2568 163.088,118.42 23.891,37.3958 41.55,188.0177 25.969,225.4135 -16.62,39.4733 -39.473,46.7447 -139.196,43.6284 -67.52,-1.0388 -93.489,-7.2714 -153.738,-35.3183 l -71.675,-33.2407 -46.745,-96.6057 c -25.969,-52.9774 -51.939,-120.4976 -59.21,-148.5444 -14.543,-60.2488 -22.853,-66.4814 -25.969,-17.6592 -4.155,59.21 -14.543,93.4895 -49.861,170.3586 -39.4742,82.063 -54.0162,91.412 -119.4592,81.0243 -38.4347,-6.2327 -44.6673,-12.4653 -64.404,-55.055 -52.9773,-120.4975 -22.853,-324.0968 62.326,-419.6638 73.753,-83.1018 81.025,-103.8772 65.443,-189.0565 -6.233,-40.5121 -22.853,-105.9547 -36.357,-146.4668 -12.465,-39.4734 -31.163,-101.7997 -41.551,-137.1179 -19.7366,-66.4814 -71.6752,-169.3199 -87.2568,-169.3199 -4.1551,0 -13.504,17.6592 -19.7366,39.4734 -7.2714,20.7754 -38.4346,71.6752 -70.6365,111.1486 -170.3586,211.9094 -209.832,272.1582 -325.1356,500.688 -111.1486,222.2972 -117.3813,231.6462 -191.1341,300.2051 -78.9466,73.7528 -259.6929,188.0177 -440.4393,278.3909 -132.9628,66.4814 -353.1824,158.9321 -420.7026,176.5912 -31.1631,7.2714 -93.4895,25.9693 -138.1567,40.5121 -45.7059,13.5041 -167.2422,47.7835 -270.0807,74.7916 -317.8642,82.063 -346.9498,106.9935 -400.9659,347.9886 -35.3183,156.8546 -72.714,717.7914 -61.2876,921.3907 11.4265,202.5605 8.3102,199.4442 207.7544,275.2745 157.8934,60.2488 163.0872,61.2876 238.9176,56.0937 123.6138,-10.3877 269.0419,-60.2487 383.3068,-135.0403 68.559,-43.6284 130.8853,-110.1098 239.9563,-250.3441 31.1632,-39.4733 61.2876,-75.8303 66.4814,-79.9854 6.2327,-4.1551 13.5041,-32.2019 16.6204,-62.3263 4.1551,-48.8223 1.0387,-63.3651 -34.2795,-130.8853 -32.2019,-61.2875 -50.8998,-83.1017 -101.7996,-118.42 -67.5202,-47.7835 -79.9855,-72.714 -65.4427,-131.924 27.0081,-108.0323 242.0339,-91.4119 298.1276,22.853 9.3489,18.6979 30.1243,64.4038 46.7447,102.8384 33.2407,73.7528 70.6365,108.0323 104.916,96.6058 43.6284,-13.504 99.7221,-94.5283 149.5831,-219.1809 45.706,-112.1874 56.0937,-129.8465 117.3812,-188.0177 68.559,-67.5202 90.3732,-75.8304 142.3118,-56.0937 19.7367,8.3102 29.0856,23.8918 42.5896,78.9467 20.7755,84.1405 13.5041,120.4975 -45.7059,210.8707 -22.853,35.3182 -50.8998,84.1405 -63.3651,108.0323 -12.4653,23.8917 -38.4346,66.4814 -57.1325,94.5282 -19.7366,28.0468 -35.3182,55.0549 -35.3182,61.2875 0,5.1939 16.6203,16.6204 37.3958,24.9306 33.2407,14.5428 42.5896,13.504 90.3731,-2.0776 30.1244,-9.3489 76.8692,-28.0468 104.916,-41.5509 29.0856,-13.504 57.1325,-24.9305 64.4039,-24.9305 6.2326,0 42.5896,-14.5428 81.0242,-31.1631 63.3651,-29.0856 70.6365,-30.1244 102.8384,-16.6204 38.4346,16.6204 64.4038,41.5509 78.9467,81.0242 8.3101,21.8142 5.1938,36.357 -15.5816,77.9079 -13.5041,27.0081 -37.3958,58.1712 -50.8998,68.559 -39.4734,28.0468 -121.5364,45.7059 -256.5767,54.0161 -111.1486,6.2326 -139.1954,14.5428 -114.2649,30.1244 5.1938,3.1163 48.8223,7.2714 96.6058,10.3877 55.0549,2.0776 104.9159,11.4265 134.0015,24.9305 52.9774,22.853 103.8772,81.0242 103.8772,118.42 0,31.1632 -34.2794,87.2569 -63.3651,102.8385 -30.1243,15.5815 -174.5136,6.2326 -237.8787,-16.6204 -59.21,-20.7754 -182.8239,-46.7447 -224.3748,-46.7447 -76.8691,0 -92.4507,9.3489 -122.575,70.6365 -123.6139,251.3828 -514.1921,862.1806 -604.5653,944.2436 -55.0549,48.8223 -146.4668,69.5977 -307.4765,70.6365 -73.7528,0 -132.9628,2.0776 -132.9628,5.1939 1.0388,11.4265 145.4281,70.6365 150.6219,62.3263 13.5041,-20.7754 138.1567,-50.8998 212.9483,-50.8998 67.5202,0 89.3344,5.1938 172.4361,41.5508 81.0242,35.3183 112.1874,57.1325 210.8707,147.5057 101.7997,91.4119 121.5363,115.3036 163.0872,193.2115 24.9305,48.8223 58.1712,127.769 72.714,175.5525 23.8918,72.714 27.0081,98.6833 22.853,179.7075 -4.1551,93.4895 -5.1938,95.567 -41.5509,129.8465 -59.2099,54.0162 -109.071,62.3263 -209.8319,35.3183 -126.7302,-34.2795 -168.281,-49.8611 -277.3521,-104.916 -82.063,-40.5121 -161.0096,-69.5977 -287.7398,-103.8772 -9.3489,-3.1163 -35.3182,82.063 -90.3732,300.2051 -164.1259,651.3101 -244.1114,866.3361 -333.4457,895.4221 -56.0937,18.698 -234.7625,7.271 -393.6946,-25.97 -73.7528,-15.581 -142.3118,-29.085 -150.6219,-30.124 -22.853,-2.078 -15.5816,122.575 14.5428,237.879 40.5121,153.738 41.5509,163.087 12.4652,257.615 l -27.008,86.218 -52.9774,25.97 c -73.7528,34.279 -151.6607,33.24 -224.3747,-1.039 -64.4039,-30.125 -228.5299,-202.561 -301.2439,-313.709 -105.9547,-163.087 -232.6849,-436.285 -248.2665,-536.007 -5.1938,-34.279 -14.5428,-47.783 -45.7059,-68.559 l -39.4734,-25.969 -20.7754,90.373 c -37.3958,158.932 -73.7528,367.726 -85.1793,479.913 -6.2326,60.249 -10.3877,265.926 -9.349,457.06 1.0388,350.066 -5.1938,424.857 -38.4345,474.718 -18.6979,29.086 -18.6979,34.28 2.0775,34.28 20.7755,0 178.6688,61.287 210.8707,82.063 14.5428,9.349 44.6672,23.892 67.5202,32.202 29.0856,11.426 59.21,37.396 101.7997,88.295 85.1792,101.8 89.3343,109.071 97.6445,157.894 6.2326,38.434 3.1163,46.744 -21.8142,69.597 -58.1712,54.017 -116.3425,23.892 -233.7237,-121.536 l -18.6979,-22.853 -25.9693,23.892 c -51.9386,48.822 -44.6672,138.157 15.5816,209.832 94.5283,112.187 164.126,263.848 164.126,357.337 0,42.59 -22.853,132.963 -39.4734,158.932 -10.3877,16.621 -65.4426,27.008 -81.0242,16.621 z"
         id="path2925"
         style="fill:#afb36b;fill-opacity:1;stroke-width:1.03877" /></g></g></svg>
